<svg width="32" height="32" viewBox="0 0 32 32" fill="none" xmlns="http://www.w3.org/2000/svg">
<path d="M16.1832 8.30331C18.4258 8.30331 18.6903 8.31234 19.5755 8.35234C20.108 8.3599 20.6353 8.45898 21.1342 8.64524C21.4965 8.78466 21.8255 8.99851 22.1 9.273C22.3745 9.54749 22.5883 9.8765 22.7278 10.2388C22.9127 10.738 23.0105 11.2652 23.0168 11.7975C23.0581 12.6827 23.0658 12.9485 23.0658 15.1898C23.0658 17.4311 23.0581 17.6969 23.0168 18.582C23.0105 19.1143 22.9127 19.6416 22.7278 20.1407C22.5883 20.503 22.3745 20.832 22.1 21.1065C21.8255 21.381 21.4965 21.5949 21.1342 21.7343C20.635 21.9192 20.1078 22.017 19.5755 22.0233C18.6903 22.0633 18.4258 22.0723 16.1832 22.0723C13.9407 22.0723 13.6774 22.0646 12.791 22.0194C12.2587 22.0129 11.7315 21.9151 11.2323 21.7304C10.8703 21.5905 10.5415 21.3765 10.2671 21.102C9.99265 20.8276 9.77862 20.4989 9.63872 20.1369C9.45407 19.6385 9.35631 19.1122 9.34969 18.5807C9.30969 17.6956 9.30195 17.4298 9.30195 15.1885C9.30195 12.9472 9.30969 12.6814 9.34969 11.7962C9.35571 11.2631 9.45349 10.7349 9.63872 10.2349C9.77908 9.87363 9.99331 9.54562 10.2677 9.27189C10.5421 8.99815 10.8706 8.78472 11.2323 8.64524C11.7315 8.46055 12.2587 8.36279 12.791 8.35621C13.6761 8.31621 13.9419 8.30718 16.1832 8.30718V8.30331ZM16.1832 6.79492C13.9032 6.79492 13.6181 6.80395 12.7226 6.84524C12.0265 6.85813 11.3375 6.98902 10.6852 7.23234C10.1283 7.44771 9.62261 7.77704 9.20043 8.19921C8.77826 8.62139 8.44893 9.12711 8.23356 9.68395C7.99039 10.3368 7.85951 11.0261 7.84647 11.7227C7.80647 12.6181 7.79614 12.9033 7.79614 15.1833C7.79614 17.4633 7.80647 17.7498 7.84647 18.644C7.85951 19.3405 7.99039 20.0298 8.23356 20.6827C8.44928 21.2393 8.77873 21.7448 9.20086 22.167C9.62299 22.5891 10.1285 22.9186 10.6852 23.1343C11.3377 23.3769 12.0265 23.5078 12.7226 23.5214C13.6181 23.5627 13.9032 23.5717 16.1832 23.5717C18.4632 23.5717 18.7497 23.5627 19.6452 23.5214C20.3412 23.5075 21.03 23.3767 21.6826 23.1343C22.2389 22.918 22.7442 22.5884 23.1662 22.1663C23.5883 21.7442 23.9179 21.239 24.1342 20.6827C24.3779 20.03 24.5088 19.3406 24.5213 18.644C24.5626 17.7498 24.5716 17.4633 24.5716 15.1833C24.5716 12.9033 24.5626 12.6181 24.5213 11.7227C24.5088 11.0261 24.3779 10.3367 24.1342 9.68395C23.9183 9.12739 23.5889 8.62192 23.1667 8.19981C22.7446 7.77769 22.2392 7.4482 21.6826 7.23234C21.0302 6.98926 20.3413 6.85838 19.6452 6.84524C18.7497 6.80395 18.4632 6.79492 16.1832 6.79492Z" fill="white"/>
<path d="M16.1833 10.875C15.3307 10.875 14.4972 11.1278 13.7882 11.6015C13.0793 12.0752 12.5268 12.7485 12.2005 13.5362C11.8742 14.324 11.7888 15.1908 11.9552 16.027C12.1215 16.8632 12.5321 17.6314 13.135 18.2343C13.7379 18.8372 14.506 19.2478 15.3423 19.4141C16.1785 19.5804 17.0453 19.4951 17.833 19.1688C18.6207 18.8425 19.294 18.29 19.7677 17.581C20.2414 16.8721 20.4943 16.0386 20.4943 15.186C20.4943 14.0426 20.0401 12.9461 19.2316 12.1377C18.4231 11.3292 17.3266 10.875 16.1833 10.875ZM16.1833 17.9847C15.6298 17.9847 15.0887 17.8205 14.6284 17.513C14.1682 17.2055 13.8094 16.7684 13.5976 16.257C13.3858 15.7456 13.3304 15.1829 13.4384 14.64C13.5463 14.0971 13.8129 13.5984 14.2043 13.207C14.5957 12.8156 15.0944 12.549 15.6373 12.441C16.1802 12.333 16.7429 12.3885 17.2543 12.6003C17.7657 12.8121 18.2028 13.1708 18.5103 13.6311C18.8179 14.0913 18.982 14.6324 18.982 15.186C18.982 15.9282 18.6871 16.6401 18.1623 17.165C17.6374 17.6898 16.9255 17.9847 16.1833 17.9847Z" fill="white"/>
<path d="M20.6645 11.7118C21.221 11.7118 21.6722 11.2606 21.6722 10.704C21.6722 10.1475 21.221 9.69629 20.6645 9.69629C20.1079 9.69629 19.6567 10.1475 19.6567 10.704C19.6567 11.2606 20.1079 11.7118 20.6645 11.7118Z" fill="white"/>
</svg>
