<svg width="47" height="66" viewBox="0 0 47 66" fill="none" xmlns="http://www.w3.org/2000/svg">
<path d="M46.268 23.134C46.268 35.9106 23.134 66 23.134 66C23.134 66 0 35.9106 0 23.134C0 10.3575 10.3575 0 23.134 0C35.9106 0 46.268 10.3575 46.268 23.134Z" fill="#F3674A"/>
<path d="M4.76294 23.2533C5.70108 23.2533 6.5387 22.5774 6.5387 19.9754C6.5387 17.2044 7.8454 16.123 9.18559 15.6499L10.1237 17.1706C9.08508 17.5423 8.44848 18.1844 8.44848 20.6174C8.44848 23.1857 7.57736 23.8953 7.04128 24.0643C7.57736 24.2333 8.44848 24.9767 8.44848 27.545C8.44848 29.9781 9.01807 30.6201 10.1237 30.9918L9.18559 32.4787C7.8454 32.0394 6.5387 30.8905 6.5387 28.1532C6.5387 25.5512 5.70108 24.8753 4.76294 24.8753V23.2533Z" fill="white"/>
<path d="M17.1597 17.2036V18.4202H13.1726V20.1436H16.0205V21.3939H13.1726V23.4891H17.1597V24.7056H11.7654V17.2036H17.1597Z" fill="white"/>
<path d="M18.3657 24.7056V17.2036H22.2523C23.827 17.2036 24.3296 18.3188 24.3296 19.7719C24.3296 21.056 23.7265 22.2387 22.2858 22.2387H19.7729V24.7056H18.3657ZM21.8502 21.056C22.4533 21.056 22.7549 20.6167 22.7549 19.7719C22.7549 18.8595 22.4533 18.4202 21.8837 18.4202H19.7729V21.056H21.8502Z" fill="white"/>
<path d="M26.9429 17.2036V24.7056H25.5356V17.2036H26.9429Z" fill="white"/>
<path d="M31.9357 17.0347C32.6058 17.0347 33.4769 17.1698 34.08 17.305L33.7785 18.5553C33.4099 18.4202 32.7063 18.3188 32.2037 18.3188C30.5955 18.3188 29.9589 18.5891 29.9589 20.887C29.9589 23.185 30.562 23.5567 32.2037 23.5567C32.7063 23.5567 33.4099 23.4553 33.7785 23.3201L34.08 24.6043C33.5104 24.7732 32.6393 24.8746 31.9357 24.8746C29.5903 24.8746 28.4512 23.9622 28.4512 20.9208C28.4512 17.8457 29.5903 17.0347 31.9357 17.0347Z" fill="white"/>
<path d="M14.9822 27.1399C14.7142 27.0385 14.1781 26.9709 13.6755 26.9709C12.8714 26.9709 12.5363 27.1399 12.5363 27.613C12.5363 27.9847 12.7374 28.1536 13.642 28.255C14.8147 28.3902 15.3173 28.7957 15.3173 29.7757C15.3173 30.9585 14.6136 31.364 13.1729 31.364C12.6369 31.364 12.0338 31.2626 11.6317 31.1274L11.8327 30.3164C12.1343 30.4178 12.6704 30.4854 13.1729 30.4854C13.9771 30.4854 14.3121 30.3502 14.3121 29.8095C14.3121 29.4378 14.1446 29.2012 13.1729 29.0998C12.0673 28.9985 11.5647 28.6605 11.5647 27.7143C11.5647 26.5316 12.3018 26.0923 13.6755 26.0923C14.2116 26.0923 14.8147 26.1937 15.1832 26.3288L14.9822 27.1399Z" fill="white"/>
<path d="M17.1935 31.2622H16.2554V26.2271H17.1935V31.2622ZM19.3043 31.2622C18.2992 29.6063 17.4951 28.7277 17.227 28.5925C17.5286 28.356 18.2992 27.5112 19.1703 26.2271H20.3095C19.4048 27.5112 18.6677 28.3222 18.4332 28.525C18.6677 28.6939 19.4718 29.5725 20.477 31.2284H19.3043V31.2622Z" fill="white"/>
<path d="M21.9513 26.2271V31.2622H21.0132V26.2271H21.9513Z" fill="white"/>
<path d="M24.1293 26.2271V30.4174H26.4746V31.2622H23.1912V26.2271H24.1293Z" fill="white"/>
<path d="M28.0822 26.2271V30.4174H30.4275V31.2622H27.144V26.2271H28.0822Z" fill="white"/>
<path d="M34.2471 27.1394C33.9791 27.038 33.443 26.9704 32.9404 26.9704C32.1363 26.9704 31.8012 27.1394 31.8012 27.6125C31.8012 27.9842 32.0023 28.1532 32.9069 28.2545C34.0796 28.3897 34.5821 28.7952 34.5821 29.7752C34.5821 30.958 33.8785 31.3635 32.4378 31.3635C31.9017 31.3635 31.2987 31.2621 30.8966 31.1269L31.0976 30.3159C31.3992 30.4173 31.9353 30.4849 32.4378 30.4849C33.2419 30.4849 33.577 30.3497 33.577 29.809C33.577 29.4373 33.4095 29.2007 32.4378 29.0994C31.3322 28.998 30.8296 28.6601 30.8296 27.7139C30.8296 26.5311 31.5667 26.0918 32.9404 26.0918C33.4765 26.0918 34.0796 26.1932 34.4481 26.3283L34.2471 27.1394Z" fill="white"/>
<path d="M41.2836 24.9086C40.3455 24.9086 39.5079 25.5845 39.5079 28.1865C39.5079 30.9576 38.2012 32.0727 36.861 32.512L35.9229 31.0251C36.995 30.6196 37.5981 30.0114 37.5981 27.5783C37.5981 25.01 38.4692 24.2666 39.0053 24.0976C38.4692 23.9287 37.5981 23.219 37.5981 20.6508C37.5981 18.2177 36.995 17.5756 35.9229 17.2039L36.861 15.6494C38.2012 16.0887 39.5079 17.2039 39.5079 19.9749C39.5079 22.5769 40.3455 23.2528 41.2836 23.2528V24.9086Z" fill="white"/>
</svg>
