<svg width="33" height="32" viewBox="0 0 33 32" fill="none" xmlns="http://www.w3.org/2000/svg">
<path d="M15.5088 21.3707H16.7888C16.7888 21.3707 17.1747 21.3295 17.373 21.123C17.5713 20.9165 17.5486 20.5785 17.5486 20.5785C17.5486 20.5785 17.5234 18.914 18.3204 18.6675C19.1175 18.4211 20.1155 20.2778 21.184 20.9901C21.993 21.5295 22.6078 21.4107 22.6078 21.4107L25.4673 21.372C25.4673 21.372 26.963 21.283 26.2537 20.1424C26.1952 20.0495 25.8399 19.2985 24.1247 17.7565C22.331 16.1436 22.5718 16.4043 24.7315 13.6133C26.0461 11.9127 26.5731 10.8753 26.4081 10.4314C26.2524 10.0069 25.2837 10.1191 25.2837 10.1191L22.0649 10.1385C21.9219 10.1223 21.7771 10.147 21.6484 10.2095C21.5261 10.2962 21.4286 10.4117 21.3649 10.5449C21.0314 11.3837 20.6338 12.1971 20.1753 12.9785C18.7422 15.3398 18.1687 15.4649 17.9345 15.3178C17.389 14.9759 17.526 13.9449 17.526 13.2133C17.526 10.9243 17.884 9.97074 16.8288 9.72945C16.4788 9.64687 16.2207 9.60042 15.3265 9.58494C14.1768 9.57332 13.2054 9.58494 12.6545 9.843C12.2886 10.0172 12.0052 10.4043 12.1782 10.4275C12.3911 10.4546 12.8728 10.5566 13.1282 10.8895C13.4582 11.3256 13.4463 12.3088 13.4463 12.3088C13.4463 12.3088 13.6352 15.0017 13.0032 15.3372C12.572 15.5591 11.9759 15.0972 10.6985 12.9501C10.2649 12.2048 9.88087 11.4333 9.54881 10.6404C9.48999 10.5054 9.39875 10.3859 9.28268 10.292C9.13285 10.1958 8.96447 10.1299 8.78768 10.0985L5.7272 10.1178C5.7272 10.1178 5.26813 10.1307 5.09913 10.3243C4.94877 10.4959 5.08716 10.852 5.08716 10.852C5.08716 10.852 7.48232 16.2869 10.1942 19.0249C12.6825 21.5359 15.5061 21.3707 15.5061 21.3707H15.5088Z" fill="white"/>
</svg>
