<svg width="32" height="32" fill="none" xmlns="http://www.w3.org/2000/svg"><path d="M16.183 8.303c2.243 0 2.507.01 3.393.05.532.007 1.06.106 1.558.292a2.776 2.776 0 0 1 1.594 1.594c.185.499.282 1.026.289 1.558.041.886.049 1.151.049 3.393 0 2.241-.008 2.507-.05 3.392a4.645 4.645 0 0 1-.288 1.559 2.777 2.777 0 0 1-1.594 1.593c-.499.185-1.026.283-1.558.29-.886.04-1.15.048-3.393.048-2.242 0-2.506-.007-3.392-.053a4.656 4.656 0 0 1-1.559-.289 2.783 2.783 0 0 1-1.593-1.593 4.646 4.646 0 0 1-.29-1.556c-.04-.885-.047-1.151-.047-3.393 0-2.24.008-2.507.048-3.392a4.646 4.646 0 0 1 .289-1.561 2.785 2.785 0 0 1 1.593-1.59 4.658 4.658 0 0 1 1.559-.289c.885-.04 1.15-.049 3.392-.049v-.004zm0-1.508c-2.28 0-2.565.009-3.46.05a6.156 6.156 0 0 0-2.038.387 4.286 4.286 0 0 0-2.451 2.452 6.172 6.172 0 0 0-.388 2.039c-.04.895-.05 1.18-.05 3.46 0 2.28.01 2.567.05 3.461.014.697.144 1.386.388 2.039a4.294 4.294 0 0 0 2.451 2.451 6.194 6.194 0 0 0 2.038.387c.895.042 1.18.05 3.46.05 2.28 0 2.567-.008 3.462-.05a6.207 6.207 0 0 0 2.038-.387 4.303 4.303 0 0 0 2.451-2.451 6.144 6.144 0 0 0 .387-2.039c.042-.894.05-1.18.05-3.46 0-2.28-.008-2.566-.05-3.461a6.144 6.144 0 0 0-.387-2.04 4.295 4.295 0 0 0-2.451-2.45 6.169 6.169 0 0 0-2.038-.388c-.895-.041-1.182-.05-3.462-.05z" fill="#fff"/><path d="M16.183 10.875a4.311 4.311 0 1 0 0 8.623 4.311 4.311 0 0 0 0-8.623zm0 7.11a2.8 2.8 0 1 1 0-5.599 2.8 2.8 0 0 1 0 5.599zM20.665 11.712a1.008 1.008 0 1 0 0-2.016 1.008 1.008 0 0 0 0 2.016z" fill="#fff"/></svg>