<svg width="47" height="66" fill="none" xmlns="http://www.w3.org/2000/svg"><path d="M46.268 23.134C46.268 35.911 23.134 66 23.134 66S0 35.91 0 23.134C0 10.357 10.357 0 23.134 0c12.777 0 23.134 10.357 23.134 23.134z" fill="#F3674A"/><path d="M4.763 23.253c.938 0 1.776-.676 1.776-3.278 0-2.77 1.306-3.852 2.647-4.325l.938 1.52c-1.039.372-1.676 1.014-1.676 3.447 0 2.569-.87 3.278-1.407 3.447.536.17 1.407.913 1.407 3.481 0 2.433.57 3.075 1.676 3.447l-.938 1.487c-1.34-.44-2.647-1.588-2.647-4.326 0-2.602-.838-3.278-1.776-3.278v-1.622zM17.16 17.204v1.216h-3.987v1.724h2.847v1.25h-2.847v2.095h3.987v1.217h-5.395v-7.502h5.395zM18.366 24.706v-7.502h3.886c1.575 0 2.078 1.115 2.078 2.568 0 1.284-.603 2.467-2.044 2.467h-2.513v2.467h-1.407zm3.484-3.65c.603 0 .905-.44.905-1.284 0-.912-.302-1.352-.871-1.352h-2.111v2.636h2.077zM26.943 17.204v7.502h-1.407v-7.502h1.407zM31.936 17.035c.67 0 1.54.135 2.144.27l-.301 1.25c-.37-.135-1.073-.236-1.575-.236-1.608 0-2.245.27-2.245 2.568s.603 2.67 2.245 2.67c.502 0 1.206-.102 1.575-.237l.301 1.284c-.57.17-1.44.27-2.144.27-2.346 0-3.485-.912-3.485-3.953 0-3.075 1.14-3.886 3.485-3.886zM14.982 27.14c-.268-.102-.804-.17-1.306-.17-.805 0-1.14.17-1.14.643 0 .372.201.54 1.106.642 1.173.135 1.675.54 1.675 1.52 0 1.184-.703 1.589-2.144 1.589-.536 0-1.14-.101-1.541-.237l.2-.81c.302.1.838.168 1.34.168.805 0 1.14-.135 1.14-.675 0-.372-.167-.609-1.14-.71-1.105-.102-1.607-.44-1.607-1.386 0-1.182.737-1.622 2.11-1.622.537 0 1.14.102 1.508.237l-.2.81zM17.194 31.262h-.939v-5.035h.939v5.035zm2.11 0c-1.005-1.656-1.809-2.534-2.077-2.67.302-.236 1.072-1.08 1.943-2.365h1.14c-.905 1.284-1.642 2.095-1.877 2.298.235.169 1.039 1.048 2.044 2.703h-1.173v.034zM21.951 26.227v5.035h-.938v-5.035h.938zM24.13 26.227v4.19h2.345v.845H23.19v-5.035h.938zM28.082 26.227v4.19h2.345v.845h-3.283v-5.035h.938zM34.247 27.14c-.268-.102-.804-.17-1.307-.17-.804 0-1.139.17-1.139.643 0 .371.201.54 1.106.642 1.173.135 1.675.54 1.675 1.52 0 1.183-.703 1.588-2.144 1.588-.536 0-1.14-.1-1.541-.236l.2-.811c.302.101.838.169 1.34.169.805 0 1.14-.135 1.14-.676 0-.372-.167-.608-1.14-.71-1.105-.101-1.607-.439-1.607-1.385 0-1.183.737-1.622 2.11-1.622.537 0 1.14.101 1.508.236l-.2.811zM41.284 24.909c-.938 0-1.776.675-1.776 3.277 0 2.772-1.307 3.887-2.647 4.326l-.938-1.487c1.072-.405 1.675-1.014 1.675-3.447 0-2.568.871-3.311 1.407-3.48-.536-.17-1.407-.879-1.407-3.447 0-2.433-.603-3.075-1.675-3.447l.938-1.555c1.34.44 2.647 1.555 2.647 4.326 0 2.602.837 3.278 1.776 3.278v1.656z" fill="#fff"/></svg>