<svg width="33" height="32" fill="none" xmlns="http://www.w3.org/2000/svg"><path d="M15.509 21.37h1.28s.386-.04.584-.247c.198-.207.176-.545.176-.545s-.026-1.664.771-1.91c.797-.247 1.796 1.61 2.864 2.322.809.54 1.424.42 1.424.42l2.86-.038s1.495-.089.786-1.23c-.059-.093-.414-.843-2.13-2.386-1.793-1.612-1.552-1.352.608-4.143 1.314-1.7 1.841-2.738 1.676-3.182-.156-.424-1.124-.312-1.124-.312l-3.22.02a.759.759 0 0 0-.416.07.874.874 0 0 0-.283.336 17.813 17.813 0 0 1-1.19 2.434c-1.433 2.36-2.006 2.486-2.24 2.339-.546-.342-.409-1.373-.409-2.105 0-2.289.358-3.242-.697-3.484-.35-.082-.608-.129-1.503-.144-1.15-.012-2.12 0-2.671.258-.366.174-.65.561-.477.585.213.027.695.129.95.461.33.437.318 1.42.318 1.42s.19 2.693-.443 3.028c-.431.222-1.027-.24-2.305-2.387a19.812 19.812 0 0 1-1.15-2.31.923.923 0 0 0-.265-.348 1.355 1.355 0 0 0-.495-.194l-3.06.02s-.46.013-.629.206c-.15.172-.012.528-.012.528s2.395 5.435 5.107 8.173c2.488 2.51 5.312 2.346 5.312 2.346h.003z" fill="#fff"/></svg>