<svg width="32" height="32" fill="none" xmlns="http://www.w3.org/2000/svg"><path d="M20.959 18.117c-.299 0-.448.228-.447.684v.456h.892V18.8c0-.455-.149-.683-.445-.684z" fill="#fff"/><path d="M23.142 15.613a1.866 1.866 0 0 0-1.594-1.452c-1.832-.204-3.686-.205-5.531-.204-1.845.002-3.7 0-5.532.204a1.865 1.865 0 0 0-1.599 1.452c-.258 1.118-.258 2.34-.258 3.491 0 1.151 0 2.375.258 3.493a1.866 1.866 0 0 0 1.598 1.45c1.827.21 3.681.21 5.526.21 1.845 0 3.701 0 5.532-.204a1.866 1.866 0 0 0 1.597-1.45c.258-1.12.258-2.341.258-3.494 0-1.152.002-2.378-.255-3.496zm-10.303 1.006H11.77v5.678h-.993v-5.678h-1.05v-.93h3.112v.93zm2.698 5.678h-.894v-.538c-.355.407-.692.606-1.02.606-.287 0-.485-.117-.575-.366a2.508 2.508 0 0 1-.079-.733v-3.892h.893v3.627c-.004.116-.002.232.008.347.022.138.09.21.209.21.18 0 .366-.139.564-.419v-3.765h.894v4.923zm3.39-1.48c.013.334-.018.668-.09.994-.118.366-.357.554-.713.554-.317 0-.625-.177-.923-.546v.478h-.891v-6.608h.891v2.159c.29-.355.595-.535.923-.535.356 0 .595.187.713.556.074.325.104.659.09.991v1.958zm3.37-.817h-1.78v.873c0 .456.148.684.455.684.219 0 .347-.12.398-.358.017-.202.024-.404.02-.606h.91v.13c0 .286-.01.485-.019.574a1.253 1.253 0 0 1-.679.942 1.235 1.235 0 0 1-.608.127 1.279 1.279 0 0 1-1.08-.504c-.19-.248-.288-.636-.288-1.162v-1.72c0-.527.086-.912.276-1.162a1.269 1.269 0 0 1 1.07-.506 1.24 1.24 0 0 1 1.052.506c.188.249.277.633.277 1.161L22.297 20z" fill="#fff"/><path d="M17.647 18.117a.645.645 0 0 0-.446.217v3.003a.638.638 0 0 0 .446.22c.258 0 .387-.22.387-.664v-2.104c.001-.443-.13-.672-.387-.672z" fill="#fff"/><path fill-rule="evenodd" clip-rule="evenodd" d="M14.466 6.386h-1.012l-.68 2.622-.71-2.622H11.01c.212.62.431 1.241.645 1.86.248.69.45 1.396.603 2.113v2.71h1v-2.71l1.208-3.973zm2.672 5.067V9.71c0-.532-.09-.922-.28-1.173a1.338 1.338 0 0 0-2.102 0c-.19.258-.281.645-.281 1.173v1.743c0 .528.09.92.281 1.17a1.34 1.34 0 0 0 2.102 0c.19-.25.28-.642.28-1.17zm-.903.169c0 .46-.14.69-.43.69s-.43-.23-.43-.69V9.529c0-.46.14-.69.43-.69s.43.23.43.69v2.093zm4.237 1.441V8.088h-.903v3.802c-.2.283-.387.422-.57.422-.122 0-.191-.07-.212-.21a2.236 2.236 0 0 1-.01-.351V8.088h-.904v3.934c-.01.25.018.499.08.74.09.259.29.37.581.37.33 0 .671-.2 1.032-.612v.543h.906z" fill="#fff"/></svg>