<svg width="131" height="69" fill="none" xmlns="http://www.w3.org/2000/svg"><g clip-path="url(#clip0)" fill="#fff"><path d="M11.057 31.364c2.764 0 5.232-1.992 5.232-9.658 0-8.165 3.85-11.351 7.798-12.745l2.765 4.48c-3.06 1.096-4.936 2.988-4.936 10.156 0 7.567-2.567 9.658-4.146 10.156 1.579.498 4.146 2.689 4.146 10.256 0 7.169 1.678 9.06 4.936 10.155l-2.765 4.381c-3.948-1.294-7.798-4.68-7.798-12.744 0-7.667-2.468-9.658-5.232-9.658v-4.78zm36.526-17.823v3.585H35.835v5.077h8.391v3.684h-8.39v6.174h11.747v3.584H31.689V13.541h15.894zm3.553 22.104V13.541h11.452c4.64 0 6.12 3.286 6.12 7.567 0 3.784-1.776 7.269-6.021 7.269h-7.404v7.268h-4.147zm10.267-10.753c1.777 0 2.666-1.295 2.666-3.784 0-2.688-.889-3.982-2.567-3.982h-6.22v7.766h6.121zm15.006-11.351v22.104h-4.147V13.541h4.147zm14.709-.498c1.974 0 4.54.399 6.318.797l-.889 3.684c-1.085-.398-3.159-.697-4.64-.697-4.738 0-6.614.796-6.614 7.567 0 6.77 1.777 7.866 6.615 7.866 1.48 0 3.553-.299 4.64-.697l.888 3.783c-1.678.498-4.245.797-6.318.797-6.91 0-10.267-2.688-10.267-11.65 0-9.06 3.356-11.45 10.267-11.45zM41.166 42.814c-.79-.299-2.37-.498-3.85-.498-2.37 0-3.357.498-3.357 1.892 0 1.095.593 1.593 3.258 1.892 3.455.398 4.936 1.593 4.936 4.48 0 3.485-2.073 4.68-6.318 4.68-1.58 0-3.356-.299-4.54-.697l.591-2.39c.889.299 2.468.498 3.95.498 2.368 0 3.356-.398 3.356-1.991 0-1.096-.494-1.793-3.357-2.091-3.258-.299-4.738-1.295-4.738-4.082 0-3.485 2.172-4.78 6.219-4.78 1.58 0 3.356.299 4.442.697l-.592 2.39zm6.515 12.147h-2.764V40.126h2.764V54.96zm6.22 0c-2.962-4.879-5.331-7.468-6.12-7.866.888-.697 3.158-3.186 5.725-6.97h3.356c-2.665 3.784-4.837 6.174-5.528 6.771.691.498 3.06 3.087 6.022 7.965H53.9v.1zM61.7 40.126V54.96h-2.765V40.126H61.7zm6.416 0v12.346h6.91v2.489h-9.674V40.126h2.764zm11.649 0v12.346h6.91v2.489h-9.674V40.126h2.764zm18.165 2.688c-.79-.299-2.37-.498-3.85-.498-2.37 0-3.357.498-3.357 1.892 0 1.095.592 1.593 3.258 1.892 3.455.398 4.936 1.593 4.936 4.48 0 3.485-2.073 4.68-6.318 4.68-1.58 0-3.357-.299-4.541-.697l.592-2.39c.888.299 2.468.498 3.949.498 2.369 0 3.356-.398 3.356-1.991 0-1.096-.493-1.793-3.356-2.091-3.258-.299-4.739-1.295-4.739-4.082 0-3.485 2.172-4.78 6.22-4.78 1.579 0 3.356.299 4.442.697l-.593 2.39zm20.73-6.572c-2.764 0-5.232 1.992-5.232 9.658 0 8.165-3.85 11.45-7.799 12.745l-2.764-4.38c3.159-1.196 4.936-2.988 4.936-10.157 0-7.567 2.567-9.757 4.146-10.255-1.579-.498-4.146-2.589-4.146-10.156 0-7.169-1.777-9.06-4.936-10.156l2.764-4.58c3.949 1.294 7.799 4.58 7.799 12.745 0 7.666 2.468 9.658 5.232 9.658v4.878z"/></g><defs><clipPath id="clip0"><path fill="#fff" d="M0 0h131v69H0z"/></clipPath></defs></svg>